<?xml version="1.0" encoding="utf-8" standalone="no"?>
<!DOCTYPE svg PUBLIC "-//W3C//DTD SVG 1.1//EN"
  "http://www.w3.org/Graphics/SVG/1.1/DTD/svg11.dtd">
<svg xmlns:xlink="http://www.w3.org/1999/xlink" width="660.407031pt" height="340.906812pt" viewBox="0 0 660.407031 340.906812" xmlns="http://www.w3.org/2000/svg" version="1.1">
 <metadata>
  <rdf:RDF xmlns:dc="http://purl.org/dc/elements/1.1/" xmlns:cc="http://creativecommons.org/ns#" xmlns:rdf="http://www.w3.org/1999/02/22-rdf-syntax-ns#">
   <cc:Work>
    <dc:type rdf:resource="http://purl.org/dc/dcmitype/StillImage"/>
    <dc:date>2026-06-15T02:40:11.849811</dc:date>
    <dc:format>image/svg+xml</dc:format>
    <dc:creator>
     <cc:Agent>
      <dc:title>Matplotlib v3.10.9, https://matplotlib.org/</dc:title>
     </cc:Agent>
    </dc:creator>
   </cc:Work>
  </rdf:RDF>
 </metadata>
 <defs>
  <style type="text/css">*{stroke-linejoin: round; stroke-linecap: butt}</style>
 </defs>
 <g id="figure_1">
  <g id="patch_1">
   <path d="M 0 340.906812 
L 660.407031 340.906812 
L 660.407031 0 
L 0 0 
z
" style="fill: #ffffff"/>
  </g>
  <g id="axes_1">
   <g id="patch_2">
    <path d="M 95.207031 297.840437 
L 653.207031 297.840437 
L 653.207031 31.728437 
L 95.207031 31.728437 
z
" style="fill: #ffffff"/>
   </g>
   <g id="patch_3">
    <path d="M 120.570668 297.840437 
L 227.364926 297.840437 
L 227.364926 66.438698 
L 120.570668 66.438698 
z
" clip-path="url(#p41e9251d73)" style="fill: #2e7d32"/>
   </g>
   <g id="patch_4">
    <path d="M 254.063491 297.840437 
L 360.857749 297.840437 
L 360.857749 66.438698 
L 254.063491 66.438698 
z
" clip-path="url(#p41e9251d73)" style="fill: #2e7d32"/>
   </g>
   <g id="patch_5">
    <path d="M 387.556314 297.840437 
L 494.350572 297.840437 
L 494.350572 66.438698 
L 387.556314 66.438698 
z
" clip-path="url(#p41e9251d73)" style="fill: #2e7d32"/>
   </g>
   <g id="patch_6">
    <path d="M 521.049137 297.840437 
L 627.843395 297.840437 
L 627.843395 66.438698 
L 521.049137 66.438698 
z
" clip-path="url(#p41e9251d73)" style="fill: #2e7d32"/>
   </g>
   <g id="matplotlib.axis_1">
    <g id="xtick_1">
     <g id="line2d_1">
      <path d="M 173.967797 297.840437 
L 173.967797 31.728437 
" clip-path="url(#p41e9251d73)" style="fill: none; stroke: #b0b0b0; stroke-opacity: 0.22; stroke-width: 0.7; stroke-linecap: square"/>
     </g>
     <g id="line2d_2">
      <defs>
       <path id="m5792bf251e" d="M 0 0 
L 0 3.5 
" style="stroke: #000000; stroke-width: 0.8"/>
      </defs>
      <g>
       <use xlink:href="#m5792bf251e" x="173.967797" y="297.840437" style="stroke: #000000; stroke-width: 0.8"/>
      </g>
     </g>
     <g id="text_1">
      <!-- H1 -->
      <g transform="translate(167.720531 311.679031) scale(0.09 -0.09)">
       <defs>
        <path id="DejaVuSans-48" d="M 628 4666 
L 1259 4666 
L 1259 2753 
L 3553 2753 
L 3553 4666 
L 4184 4666 
L 4184 0 
L 3553 0 
L 3553 2222 
L 1259 2222 
L 1259 0 
L 628 0 
L 628 4666 
z
" transform="scale(0.015625)"/>
        <path id="DejaVuSans-31" d="M 794 531 
L 1825 531 
L 1825 4091 
L 703 3866 
L 703 4441 
L 1819 4666 
L 2450 4666 
L 2450 531 
L 3481 531 
L 3481 0 
L 794 0 
L 794 531 
z
" transform="scale(0.015625)"/>
       </defs>
       <use xlink:href="#DejaVuSans-48"/>
       <use xlink:href="#DejaVuSans-31" transform="translate(75.195312 0)"/>
      </g>
      <!-- кросс-языковая -->
      <g transform="translate(136.825922 321.757062) scale(0.09 -0.09)">
       <defs>
        <path id="DejaVuSans-43a" d="M 581 3500 
L 1153 3500 
L 1153 1856 
L 2775 3500 
L 3481 3500 
L 2144 2147 
L 3653 0 
L 3009 0 
L 1769 1766 
L 1153 1141 
L 1153 0 
L 581 0 
L 581 3500 
z
" transform="scale(0.015625)"/>
        <path id="DejaVuSans-440" d="M 1159 525 
L 1159 -1331 
L 581 -1331 
L 581 3500 
L 1159 3500 
L 1159 2969 
Q 1341 3281 1617 3432 
Q 1894 3584 2278 3584 
Q 2916 3584 3314 3078 
Q 3713 2572 3713 1747 
Q 3713 922 3314 415 
Q 2916 -91 2278 -91 
Q 1894 -91 1617 61 
Q 1341 213 1159 525 
z
M 3116 1747 
Q 3116 2381 2855 2742 
Q 2594 3103 2138 3103 
Q 1681 3103 1420 2742 
Q 1159 2381 1159 1747 
Q 1159 1113 1420 752 
Q 1681 391 2138 391 
Q 2594 391 2855 752 
Q 3116 1113 3116 1747 
z
" transform="scale(0.015625)"/>
        <path id="DejaVuSans-43e" d="M 1959 3097 
Q 1497 3097 1228 2736 
Q 959 2375 959 1747 
Q 959 1119 1226 758 
Q 1494 397 1959 397 
Q 2419 397 2687 759 
Q 2956 1122 2956 1747 
Q 2956 2369 2687 2733 
Q 2419 3097 1959 3097 
z
M 1959 3584 
Q 2709 3584 3137 3096 
Q 3566 2609 3566 1747 
Q 3566 888 3137 398 
Q 2709 -91 1959 -91 
Q 1206 -91 779 398 
Q 353 888 353 1747 
Q 353 2609 779 3096 
Q 1206 3584 1959 3584 
z
" transform="scale(0.015625)"/>
        <path id="DejaVuSans-441" d="M 3122 3366 
L 3122 2828 
Q 2878 2963 2633 3030 
Q 2388 3097 2138 3097 
Q 1578 3097 1268 2742 
Q 959 2388 959 1747 
Q 959 1106 1268 751 
Q 1578 397 2138 397 
Q 2388 397 2633 464 
Q 2878 531 3122 666 
L 3122 134 
Q 2881 22 2623 -34 
Q 2366 -91 2075 -91 
Q 1284 -91 818 406 
Q 353 903 353 1747 
Q 353 2603 823 3093 
Q 1294 3584 2113 3584 
Q 2378 3584 2631 3529 
Q 2884 3475 3122 3366 
z
" transform="scale(0.015625)"/>
        <path id="DejaVuSans-2d" d="M 313 2009 
L 1997 2009 
L 1997 1497 
L 313 1497 
L 313 2009 
z
" transform="scale(0.015625)"/>
        <path id="DejaVuSans-44f" d="M 1181 2491 
Q 1181 2231 1381 2084 
Q 1581 1938 1953 1938 
L 2728 1938 
L 2728 3041 
L 1953 3041 
Q 1581 3041 1381 2897 
Q 1181 2753 1181 2491 
z
M 363 0 
L 1431 1534 
Q 1069 1616 828 1830 
Q 588 2044 588 2491 
Q 588 2997 923 3248 
Q 1259 3500 1938 3500 
L 3306 3500 
L 3306 0 
L 2728 0 
L 2728 1478 
L 2013 1478 
L 981 0 
L 363 0 
z
" transform="scale(0.015625)"/>
        <path id="DejaVuSans-437" d="M 2206 1888 
Q 2594 1813 2809 1584 
Q 3025 1356 3025 1019 
Q 3025 478 2622 193 
Q 2219 -91 1475 -91 
Q 1225 -91 961 -47 
Q 697 -3 416 84 
L 416 619 
Q 638 503 903 445 
Q 1169 388 1459 388 
Q 1931 388 2195 563 
Q 2459 738 2459 1019 
Q 2459 1294 2225 1461 
Q 1991 1628 1563 1628 
L 1100 1628 
L 1100 2103 
L 1584 2103 
Q 1947 2103 2158 2242 
Q 2369 2381 2369 2600 
Q 2369 2800 2151 2944 
Q 1934 3088 1563 3088 
Q 1341 3088 1089 3047 
Q 838 3006 534 2916 
L 534 3438 
Q 841 3513 1106 3550 
Q 1372 3588 1609 3588 
Q 2222 3588 2576 3342 
Q 2931 3097 2931 2656 
Q 2931 2366 2743 2164 
Q 2556 1963 2206 1888 
z
" transform="scale(0.015625)"/>
        <path id="DejaVuSans-44b" d="M 3907 3500 
L 4482 3500 
L 4482 0 
L 3907 0 
L 3907 3500 
z
M 4195 3584 
L 4195 3584 
z
M 2781 1038 
Q 2781 1319 2576 1466 
Q 2372 1613 1978 1613 
L 1159 1613 
L 1159 459 
L 1978 459 
Q 2372 459 2576 607 
Q 2781 756 2781 1038 
z
M 581 3500 
L 1159 3500 
L 1159 2072 
L 2003 2072 
Q 2672 2072 3033 1817 
Q 3394 1563 3394 1038 
Q 3394 513 3033 256 
Q 2672 0 2003 0 
L 581 0 
L 581 3500 
z
" transform="scale(0.015625)"/>
        <path id="DejaVuSans-432" d="M 1156 1613 
L 1156 459 
L 1975 459 
Q 2369 459 2575 607 
Q 2781 756 2781 1038 
Q 2781 1319 2575 1466 
Q 2369 1613 1975 1613 
L 1156 1613 
z
M 1156 3041 
L 1156 2072 
L 1913 2072 
Q 2238 2072 2444 2201 
Q 2650 2331 2650 2563 
Q 2650 2794 2444 2917 
Q 2238 3041 1913 3041 
L 1156 3041 
z
M 581 3500 
L 1950 3500 
Q 2566 3500 2897 3275 
Q 3228 3050 3228 2634 
Q 3228 2313 3059 2123 
Q 2891 1934 2559 1888 
Q 2956 1813 3175 1575 
Q 3394 1338 3394 981 
Q 3394 513 3033 256 
Q 2672 0 2003 0 
L 581 0 
L 581 3500 
z
" transform="scale(0.015625)"/>
        <path id="DejaVuSans-430" d="M 2194 1759 
Q 1497 1759 1228 1600 
Q 959 1441 959 1056 
Q 959 750 1161 570 
Q 1363 391 1709 391 
Q 2188 391 2477 730 
Q 2766 1069 2766 1631 
L 2766 1759 
L 2194 1759 
z
M 3341 1997 
L 3341 0 
L 2766 0 
L 2766 531 
Q 2569 213 2275 61 
Q 1981 -91 1556 -91 
Q 1019 -91 701 211 
Q 384 513 384 1019 
Q 384 1609 779 1909 
Q 1175 2209 1959 2209 
L 2766 2209 
L 2766 2266 
Q 2766 2663 2505 2880 
Q 2244 3097 1772 3097 
Q 1472 3097 1187 3025 
Q 903 2953 641 2809 
L 641 3341 
Q 956 3463 1253 3523 
Q 1550 3584 1831 3584 
Q 2591 3584 2966 3190 
Q 3341 2797 3341 1997 
z
" transform="scale(0.015625)"/>
       </defs>
       <use xlink:href="#DejaVuSans-43a"/>
       <use xlink:href="#DejaVuSans-440" transform="translate(60.400391 0)"/>
       <use xlink:href="#DejaVuSans-43e" transform="translate(123.876953 0)"/>
       <use xlink:href="#DejaVuSans-441" transform="translate(185.058594 0)"/>
       <use xlink:href="#DejaVuSans-441" transform="translate(240.039062 0)"/>
       <use xlink:href="#DejaVuSans-2d" transform="translate(295.019531 0)"/>
       <use xlink:href="#DejaVuSans-44f" transform="translate(331.103516 0)"/>
       <use xlink:href="#DejaVuSans-437" transform="translate(391.259766 0)"/>
       <use xlink:href="#DejaVuSans-44b" transform="translate(444.433594 0)"/>
       <use xlink:href="#DejaVuSans-43a" transform="translate(523.388672 0)"/>
       <use xlink:href="#DejaVuSans-43e" transform="translate(583.789062 0)"/>
       <use xlink:href="#DejaVuSans-432" transform="translate(644.970703 0)"/>
       <use xlink:href="#DejaVuSans-430" transform="translate(703.90625 0)"/>
       <use xlink:href="#DejaVuSans-44f" transform="translate(765.185547 0)"/>
      </g>
      <!-- асимметрия -->
      <g transform="translate(145.143891 331.835094) scale(0.09 -0.09)">
       <defs>
        <path id="DejaVuSans-438" d="M 3578 3500 
L 3578 0 
L 3006 0 
L 3006 2809 
L 1319 0 
L 581 0 
L 581 3500 
L 1153 3500 
L 1153 697 
L 2838 3500 
L 3578 3500 
z
" transform="scale(0.015625)"/>
        <path id="DejaVuSans-43c" d="M 581 3500 
L 1422 3500 
L 2416 1156 
L 3413 3500 
L 4247 3500 
L 4247 0 
L 3669 0 
L 3669 2950 
L 2703 672 
L 2128 672 
L 1159 2950 
L 1159 0 
L 581 0 
L 581 3500 
z
" transform="scale(0.015625)"/>
        <path id="DejaVuSans-435" d="M 3597 1894 
L 3597 1613 
L 953 1613 
Q 991 1019 1311 708 
Q 1631 397 2203 397 
Q 2534 397 2845 478 
Q 3156 559 3463 722 
L 3463 178 
Q 3153 47 2828 -22 
Q 2503 -91 2169 -91 
Q 1331 -91 842 396 
Q 353 884 353 1716 
Q 353 2575 817 3079 
Q 1281 3584 2069 3584 
Q 2775 3584 3186 3129 
Q 3597 2675 3597 1894 
z
M 3022 2063 
Q 3016 2534 2758 2815 
Q 2500 3097 2075 3097 
Q 1594 3097 1305 2825 
Q 1016 2553 972 2059 
L 3022 2063 
z
" transform="scale(0.015625)"/>
        <path id="DejaVuSans-442" d="M 188 3500 
L 3541 3500 
L 3541 3041 
L 2147 3041 
L 2147 0 
L 1581 0 
L 1581 3041 
L 188 3041 
L 188 3500 
z
" transform="scale(0.015625)"/>
       </defs>
       <use xlink:href="#DejaVuSans-430"/>
       <use xlink:href="#DejaVuSans-441" transform="translate(61.279297 0)"/>
       <use xlink:href="#DejaVuSans-438" transform="translate(116.259766 0)"/>
       <use xlink:href="#DejaVuSans-43c" transform="translate(181.25 0)"/>
       <use xlink:href="#DejaVuSans-43c" transform="translate(256.689453 0)"/>
       <use xlink:href="#DejaVuSans-435" transform="translate(332.128906 0)"/>
       <use xlink:href="#DejaVuSans-442" transform="translate(393.652344 0)"/>
       <use xlink:href="#DejaVuSans-440" transform="translate(451.904297 0)"/>
       <use xlink:href="#DejaVuSans-438" transform="translate(515.380859 0)"/>
       <use xlink:href="#DejaVuSans-44f" transform="translate(580.371094 0)"/>
      </g>
     </g>
    </g>
    <g id="xtick_2">
     <g id="line2d_3">
      <path d="M 307.46062 297.840437 
L 307.46062 31.728437 
" clip-path="url(#p41e9251d73)" style="fill: none; stroke: #b0b0b0; stroke-opacity: 0.22; stroke-width: 0.7; stroke-linecap: square"/>
     </g>
     <g id="line2d_4">
      <g>
       <use xlink:href="#m5792bf251e" x="307.46062" y="297.840437" style="stroke: #000000; stroke-width: 0.8"/>
      </g>
     </g>
     <g id="text_2">
      <!-- H2 -->
      <g transform="translate(301.213354 311.679031) scale(0.09 -0.09)">
       <defs>
        <path id="DejaVuSans-32" d="M 1228 531 
L 3431 531 
L 3431 0 
L 469 0 
L 469 531 
Q 828 903 1448 1529 
Q 2069 2156 2228 2338 
Q 2531 2678 2651 2914 
Q 2772 3150 2772 3378 
Q 2772 3750 2511 3984 
Q 2250 4219 1831 4219 
Q 1534 4219 1204 4116 
Q 875 4013 500 3803 
L 500 4441 
Q 881 4594 1212 4672 
Q 1544 4750 1819 4750 
Q 2544 4750 2975 4387 
Q 3406 4025 3406 3419 
Q 3406 3131 3298 2873 
Q 3191 2616 2906 2266 
Q 2828 2175 2409 1742 
Q 1991 1309 1228 531 
z
" transform="scale(0.015625)"/>
       </defs>
       <use xlink:href="#DejaVuSans-48"/>
       <use xlink:href="#DejaVuSans-32" transform="translate(75.195312 0)"/>
      </g>
      <!-- межмодельная -->
      <g transform="translate(271.279214 321.757062) scale(0.09 -0.09)">
       <defs>
        <path id="DejaVuSans-436" d="M 2597 3500 
L 3169 3500 
L 3169 1856 
L 4697 3500 
L 5366 3500 
L 4109 2153 
L 5547 0 
L 4931 0 
L 3753 1769 
L 3169 1141 
L 3169 0 
L 2597 0 
L 2597 1141 
L 2013 1769 
L 834 0 
L 219 0 
L 1656 2153 
L 400 3500 
L 1069 3500 
L 2597 1856 
L 2597 3500 
z
" transform="scale(0.015625)"/>
        <path id="DejaVuSans-434" d="M 1384 459 
L 3053 459 
L 3053 3041 
L 1844 3041 
L 1844 2603 
Q 1844 1316 1475 628 
L 1384 459 
z
M 550 459 
Q 834 584 959 850 
Q 1266 1509 1266 2838 
L 1266 3500 
L 3631 3500 
L 3631 459 
L 4091 459 
L 4091 -884 
L 3631 -884 
L 3631 0 
L 794 0 
L 794 -884 
L 334 -884 
L 334 459 
L 550 459 
z
" transform="scale(0.015625)"/>
        <path id="DejaVuSans-43b" d="M 238 0 
L 238 478 
Q 806 566 981 959 
Q 1194 1513 1194 2928 
L 1194 3500 
L 3559 3500 
L 3559 0 
L 2984 0 
L 2984 3041 
L 1769 3041 
L 1769 2694 
Q 1769 1344 1494 738 
Q 1200 91 238 0 
z
" transform="scale(0.015625)"/>
        <path id="DejaVuSans-44c" d="M 2781 1038 
Q 2781 1319 2576 1466 
Q 2372 1613 1978 1613 
L 1159 1613 
L 1159 459 
L 1978 459 
Q 2372 459 2576 607 
Q 2781 756 2781 1038 
z
M 581 3500 
L 1159 3500 
L 1159 2072 
L 2003 2072 
Q 2672 2072 3033 1817 
Q 3394 1563 3394 1038 
Q 3394 513 3033 256 
Q 2672 0 2003 0 
L 581 0 
L 581 3500 
z
" transform="scale(0.015625)"/>
        <path id="DejaVuSans-43d" d="M 581 3500 
L 1159 3500 
L 1159 2072 
L 3025 2072 
L 3025 3500 
L 3603 3500 
L 3603 0 
L 3025 0 
L 3025 1613 
L 1159 1613 
L 1159 0 
L 581 0 
L 581 3500 
z
" transform="scale(0.015625)"/>
       </defs>
       <use xlink:href="#DejaVuSans-43c"/>
       <use xlink:href="#DejaVuSans-435" transform="translate(75.439453 0)"/>
       <use xlink:href="#DejaVuSans-436" transform="translate(136.962891 0)"/>
       <use xlink:href="#DejaVuSans-43c" transform="translate(227.050781 0)"/>
       <use xlink:href="#DejaVuSans-43e" transform="translate(302.490234 0)"/>
       <use xlink:href="#DejaVuSans-434" transform="translate(363.671875 0)"/>
       <use xlink:href="#DejaVuSans-435" transform="translate(432.8125 0)"/>
       <use xlink:href="#DejaVuSans-43b" transform="translate(494.335938 0)"/>
       <use xlink:href="#DejaVuSans-44c" transform="translate(558.251953 0)"/>
       <use xlink:href="#DejaVuSans-43d" transform="translate(617.1875 0)"/>
       <use xlink:href="#DejaVuSans-430" transform="translate(682.568359 0)"/>
       <use xlink:href="#DejaVuSans-44f" transform="translate(743.847656 0)"/>
      </g>
      <!-- дифференциация -->
      <g transform="translate(264.954604 331.835094) scale(0.09 -0.09)">
       <defs>
        <path id="DejaVuSans-444" d="M 947 1747 
Q 947 1013 1173 702 
Q 1400 391 1784 391 
Q 2091 391 2447 916 
L 2447 2578 
Q 2091 3103 1784 3103 
Q 1400 3103 1173 2792 
Q 947 2481 947 1747 
z
M 2447 -1331 
L 2447 447 
Q 2269 153 2064 31 
Q 1859 -91 1600 -91 
Q 1078 -91 714 392 
Q 350 875 350 1734 
Q 350 2594 714 3089 
Q 1078 3584 1600 3584 
Q 1859 3584 2064 3465 
Q 2269 3347 2447 3053 
L 2447 4666 
L 3025 4666 
L 3025 3053 
Q 3203 3347 3408 3465 
Q 3613 3584 3872 3584 
Q 4394 3584 4758 3089 
Q 5122 2594 5122 1734 
Q 5122 875 4758 392 
Q 4394 -91 3872 -91 
Q 3613 -91 3408 31 
Q 3203 153 3025 447 
L 3025 -1331 
L 2447 -1331 
z
M 4525 1747 
Q 4525 2481 4298 2792 
Q 4072 3103 3688 3103 
Q 3381 3103 3025 2578 
L 3025 916 
Q 3381 391 3688 391 
Q 4072 391 4298 702 
Q 4525 1013 4525 1747 
z
" transform="scale(0.015625)"/>
        <path id="DejaVuSans-446" d="M 3603 0 
L 581 0 
L 581 3500 
L 1159 3500 
L 1159 459 
L 3025 459 
L 3025 3500 
L 3603 3500 
L 3603 459 
L 4063 459 
L 4063 -884 
L 3603 -884 
L 3603 0 
z
" transform="scale(0.015625)"/>
       </defs>
       <use xlink:href="#DejaVuSans-434"/>
       <use xlink:href="#DejaVuSans-438" transform="translate(69.140625 0)"/>
       <use xlink:href="#DejaVuSans-444" transform="translate(134.130859 0)"/>
       <use xlink:href="#DejaVuSans-444" transform="translate(219.628906 0)"/>
       <use xlink:href="#DejaVuSans-435" transform="translate(305.126953 0)"/>
       <use xlink:href="#DejaVuSans-440" transform="translate(366.650391 0)"/>
       <use xlink:href="#DejaVuSans-435" transform="translate(430.126953 0)"/>
       <use xlink:href="#DejaVuSans-43d" transform="translate(491.650391 0)"/>
       <use xlink:href="#DejaVuSans-446" transform="translate(557.03125 0)"/>
       <use xlink:href="#DejaVuSans-438" transform="translate(625.097656 0)"/>
       <use xlink:href="#DejaVuSans-430" transform="translate(690.087891 0)"/>
       <use xlink:href="#DejaVuSans-446" transform="translate(751.367188 0)"/>
       <use xlink:href="#DejaVuSans-438" transform="translate(819.433594 0)"/>
       <use xlink:href="#DejaVuSans-44f" transform="translate(884.423828 0)"/>
      </g>
     </g>
    </g>
    <g id="xtick_3">
     <g id="line2d_5">
      <path d="M 440.953443 297.840437 
L 440.953443 31.728437 
" clip-path="url(#p41e9251d73)" style="fill: none; stroke: #b0b0b0; stroke-opacity: 0.22; stroke-width: 0.7; stroke-linecap: square"/>
     </g>
     <g id="line2d_6">
      <g>
       <use xlink:href="#m5792bf251e" x="440.953443" y="297.840437" style="stroke: #000000; stroke-width: 0.8"/>
      </g>
     </g>
     <g id="text_3">
      <!-- H3 -->
      <g transform="translate(434.706177 311.679031) scale(0.09 -0.09)">
       <defs>
        <path id="DejaVuSans-33" d="M 2597 2516 
Q 3050 2419 3304 2112 
Q 3559 1806 3559 1356 
Q 3559 666 3084 287 
Q 2609 -91 1734 -91 
Q 1441 -91 1130 -33 
Q 819 25 488 141 
L 488 750 
Q 750 597 1062 519 
Q 1375 441 1716 441 
Q 2309 441 2620 675 
Q 2931 909 2931 1356 
Q 2931 1769 2642 2001 
Q 2353 2234 1838 2234 
L 1294 2234 
L 1294 2753 
L 1863 2753 
Q 2328 2753 2575 2939 
Q 2822 3125 2822 3475 
Q 2822 3834 2567 4026 
Q 2313 4219 1838 4219 
Q 1578 4219 1281 4162 
Q 984 4106 628 3988 
L 628 4550 
Q 988 4650 1302 4700 
Q 1616 4750 1894 4750 
Q 2613 4750 3031 4423 
Q 3450 4097 3450 3541 
Q 3450 3153 3228 2886 
Q 3006 2619 2597 2516 
z
" transform="scale(0.015625)"/>
       </defs>
       <use xlink:href="#DejaVuSans-48"/>
       <use xlink:href="#DejaVuSans-33" transform="translate(75.195312 0)"/>
      </g>
      <!-- encoded / expressed -->
      <g transform="translate(394.204068 321.757062) scale(0.09 -0.09)">
       <defs>
        <path id="DejaVuSans-65" d="M 3597 1894 
L 3597 1613 
L 953 1613 
Q 991 1019 1311 708 
Q 1631 397 2203 397 
Q 2534 397 2845 478 
Q 3156 559 3463 722 
L 3463 178 
Q 3153 47 2828 -22 
Q 2503 -91 2169 -91 
Q 1331 -91 842 396 
Q 353 884 353 1716 
Q 353 2575 817 3079 
Q 1281 3584 2069 3584 
Q 2775 3584 3186 3129 
Q 3597 2675 3597 1894 
z
M 3022 2063 
Q 3016 2534 2758 2815 
Q 2500 3097 2075 3097 
Q 1594 3097 1305 2825 
Q 1016 2553 972 2059 
L 3022 2063 
z
" transform="scale(0.015625)"/>
        <path id="DejaVuSans-6e" d="M 3513 2113 
L 3513 0 
L 2938 0 
L 2938 2094 
Q 2938 2591 2744 2837 
Q 2550 3084 2163 3084 
Q 1697 3084 1428 2787 
Q 1159 2491 1159 1978 
L 1159 0 
L 581 0 
L 581 3500 
L 1159 3500 
L 1159 2956 
Q 1366 3272 1645 3428 
Q 1925 3584 2291 3584 
Q 2894 3584 3203 3211 
Q 3513 2838 3513 2113 
z
" transform="scale(0.015625)"/>
        <path id="DejaVuSans-63" d="M 3122 3366 
L 3122 2828 
Q 2878 2963 2633 3030 
Q 2388 3097 2138 3097 
Q 1578 3097 1268 2742 
Q 959 2388 959 1747 
Q 959 1106 1268 751 
Q 1578 397 2138 397 
Q 2388 397 2633 464 
Q 2878 531 3122 666 
L 3122 134 
Q 2881 22 2623 -34 
Q 2366 -91 2075 -91 
Q 1284 -91 818 406 
Q 353 903 353 1747 
Q 353 2603 823 3093 
Q 1294 3584 2113 3584 
Q 2378 3584 2631 3529 
Q 2884 3475 3122 3366 
z
" transform="scale(0.015625)"/>
        <path id="DejaVuSans-6f" d="M 1959 3097 
Q 1497 3097 1228 2736 
Q 959 2375 959 1747 
Q 959 1119 1226 758 
Q 1494 397 1959 397 
Q 2419 397 2687 759 
Q 2956 1122 2956 1747 
Q 2956 2369 2687 2733 
Q 2419 3097 1959 3097 
z
M 1959 3584 
Q 2709 3584 3137 3096 
Q 3566 2609 3566 1747 
Q 3566 888 3137 398 
Q 2709 -91 1959 -91 
Q 1206 -91 779 398 
Q 353 888 353 1747 
Q 353 2609 779 3096 
Q 1206 3584 1959 3584 
z
" transform="scale(0.015625)"/>
        <path id="DejaVuSans-64" d="M 2906 2969 
L 2906 4863 
L 3481 4863 
L 3481 0 
L 2906 0 
L 2906 525 
Q 2725 213 2448 61 
Q 2172 -91 1784 -91 
Q 1150 -91 751 415 
Q 353 922 353 1747 
Q 353 2572 751 3078 
Q 1150 3584 1784 3584 
Q 2172 3584 2448 3432 
Q 2725 3281 2906 2969 
z
M 947 1747 
Q 947 1113 1208 752 
Q 1469 391 1925 391 
Q 2381 391 2643 752 
Q 2906 1113 2906 1747 
Q 2906 2381 2643 2742 
Q 2381 3103 1925 3103 
Q 1469 3103 1208 2742 
Q 947 2381 947 1747 
z
" transform="scale(0.015625)"/>
        <path id="DejaVuSans-20" transform="scale(0.015625)"/>
        <path id="DejaVuSans-2f" d="M 1625 4666 
L 2156 4666 
L 531 -594 
L 0 -594 
L 1625 4666 
z
" transform="scale(0.015625)"/>
        <path id="DejaVuSans-78" d="M 3513 3500 
L 2247 1797 
L 3578 0 
L 2900 0 
L 1881 1375 
L 863 0 
L 184 0 
L 1544 1831 
L 300 3500 
L 978 3500 
L 1906 2253 
L 2834 3500 
L 3513 3500 
z
" transform="scale(0.015625)"/>
        <path id="DejaVuSans-70" d="M 1159 525 
L 1159 -1331 
L 581 -1331 
L 581 3500 
L 1159 3500 
L 1159 2969 
Q 1341 3281 1617 3432 
Q 1894 3584 2278 3584 
Q 2916 3584 3314 3078 
Q 3713 2572 3713 1747 
Q 3713 922 3314 415 
Q 2916 -91 2278 -91 
Q 1894 -91 1617 61 
Q 1341 213 1159 525 
z
M 3116 1747 
Q 3116 2381 2855 2742 
Q 2594 3103 2138 3103 
Q 1681 3103 1420 2742 
Q 1159 2381 1159 1747 
Q 1159 1113 1420 752 
Q 1681 391 2138 391 
Q 2594 391 2855 752 
Q 3116 1113 3116 1747 
z
" transform="scale(0.015625)"/>
        <path id="DejaVuSans-72" d="M 2631 2963 
Q 2534 3019 2420 3045 
Q 2306 3072 2169 3072 
Q 1681 3072 1420 2755 
Q 1159 2438 1159 1844 
L 1159 0 
L 581 0 
L 581 3500 
L 1159 3500 
L 1159 2956 
Q 1341 3275 1631 3429 
Q 1922 3584 2338 3584 
Q 2397 3584 2469 3576 
Q 2541 3569 2628 3553 
L 2631 2963 
z
" transform="scale(0.015625)"/>
        <path id="DejaVuSans-73" d="M 2834 3397 
L 2834 2853 
Q 2591 2978 2328 3040 
Q 2066 3103 1784 3103 
Q 1356 3103 1142 2972 
Q 928 2841 928 2578 
Q 928 2378 1081 2264 
Q 1234 2150 1697 2047 
L 1894 2003 
Q 2506 1872 2764 1633 
Q 3022 1394 3022 966 
Q 3022 478 2636 193 
Q 2250 -91 1575 -91 
Q 1294 -91 989 -36 
Q 684 19 347 128 
L 347 722 
Q 666 556 975 473 
Q 1284 391 1588 391 
Q 1994 391 2212 530 
Q 2431 669 2431 922 
Q 2431 1156 2273 1281 
Q 2116 1406 1581 1522 
L 1381 1569 
Q 847 1681 609 1914 
Q 372 2147 372 2553 
Q 372 3047 722 3315 
Q 1072 3584 1716 3584 
Q 2034 3584 2315 3537 
Q 2597 3491 2834 3397 
z
" transform="scale(0.015625)"/>
       </defs>
       <use xlink:href="#DejaVuSans-65"/>
       <use xlink:href="#DejaVuSans-6e" transform="translate(61.523438 0)"/>
       <use xlink:href="#DejaVuSans-63" transform="translate(124.902344 0)"/>
       <use xlink:href="#DejaVuSans-6f" transform="translate(179.882812 0)"/>
       <use xlink:href="#DejaVuSans-64" transform="translate(241.064453 0)"/>
       <use xlink:href="#DejaVuSans-65" transform="translate(304.541016 0)"/>
       <use xlink:href="#DejaVuSans-64" transform="translate(366.064453 0)"/>
       <use xlink:href="#DejaVuSans-20" transform="translate(429.541016 0)"/>
       <use xlink:href="#DejaVuSans-2f" transform="translate(461.328125 0)"/>
       <use xlink:href="#DejaVuSans-20" transform="translate(495.019531 0)"/>
       <use xlink:href="#DejaVuSans-65" transform="translate(526.806641 0)"/>
       <use xlink:href="#DejaVuSans-78" transform="translate(586.580078 0)"/>
       <use xlink:href="#DejaVuSans-70" transform="translate(645.759766 0)"/>
       <use xlink:href="#DejaVuSans-72" transform="translate(709.236328 0)"/>
       <use xlink:href="#DejaVuSans-65" transform="translate(748.099609 0)"/>
       <use xlink:href="#DejaVuSans-73" transform="translate(809.623047 0)"/>
       <use xlink:href="#DejaVuSans-73" transform="translate(861.722656 0)"/>
       <use xlink:href="#DejaVuSans-65" transform="translate(913.822266 0)"/>
       <use xlink:href="#DejaVuSans-64" transform="translate(975.345703 0)"/>
      </g>
      <!-- диссоциация -->
      <g transform="translate(409.77688 331.835094) scale(0.09 -0.09)">
       <use xlink:href="#DejaVuSans-434"/>
       <use xlink:href="#DejaVuSans-438" transform="translate(69.140625 0)"/>
       <use xlink:href="#DejaVuSans-441" transform="translate(134.130859 0)"/>
       <use xlink:href="#DejaVuSans-441" transform="translate(189.111328 0)"/>
       <use xlink:href="#DejaVuSans-43e" transform="translate(244.091797 0)"/>
       <use xlink:href="#DejaVuSans-446" transform="translate(305.273438 0)"/>
       <use xlink:href="#DejaVuSans-438" transform="translate(373.339844 0)"/>
       <use xlink:href="#DejaVuSans-430" transform="translate(438.330078 0)"/>
       <use xlink:href="#DejaVuSans-446" transform="translate(499.609375 0)"/>
       <use xlink:href="#DejaVuSans-438" transform="translate(567.675781 0)"/>
       <use xlink:href="#DejaVuSans-44f" transform="translate(632.666016 0)"/>
      </g>
     </g>
    </g>
    <g id="xtick_4">
     <g id="line2d_7">
      <path d="M 574.446266 297.840437 
L 574.446266 31.728437 
" clip-path="url(#p41e9251d73)" style="fill: none; stroke: #b0b0b0; stroke-opacity: 0.22; stroke-width: 0.7; stroke-linecap: square"/>
     </g>
     <g id="line2d_8">
      <g>
       <use xlink:href="#m5792bf251e" x="574.446266" y="297.840437" style="stroke: #000000; stroke-width: 0.8"/>
      </g>
     </g>
     <g id="text_4">
      <!-- H4 -->
      <g transform="translate(568.199 311.679031) scale(0.09 -0.09)">
       <defs>
        <path id="DejaVuSans-34" d="M 2419 4116 
L 825 1625 
L 2419 1625 
L 2419 4116 
z
M 2253 4666 
L 3047 4666 
L 3047 1625 
L 3713 1625 
L 3713 1100 
L 3047 1100 
L 3047 0 
L 2419 0 
L 2419 1100 
L 313 1100 
L 313 1709 
L 2253 4666 
z
" transform="scale(0.015625)"/>
       </defs>
       <use xlink:href="#DejaVuSans-48"/>
       <use xlink:href="#DejaVuSans-34" transform="translate(75.195312 0)"/>
      </g>
      <!-- ABM системные -->
      <g transform="translate(537.046344 321.757062) scale(0.09 -0.09)">
       <defs>
        <path id="DejaVuSans-41" d="M 2188 4044 
L 1331 1722 
L 3047 1722 
L 2188 4044 
z
M 1831 4666 
L 2547 4666 
L 4325 0 
L 3669 0 
L 3244 1197 
L 1141 1197 
L 716 0 
L 50 0 
L 1831 4666 
z
" transform="scale(0.015625)"/>
        <path id="DejaVuSans-42" d="M 1259 2228 
L 1259 519 
L 2272 519 
Q 2781 519 3026 730 
Q 3272 941 3272 1375 
Q 3272 1813 3026 2020 
Q 2781 2228 2272 2228 
L 1259 2228 
z
M 1259 4147 
L 1259 2741 
L 2194 2741 
Q 2656 2741 2882 2914 
Q 3109 3088 3109 3444 
Q 3109 3797 2882 3972 
Q 2656 4147 2194 4147 
L 1259 4147 
z
M 628 4666 
L 2241 4666 
Q 2963 4666 3353 4366 
Q 3744 4066 3744 3513 
Q 3744 3084 3544 2831 
Q 3344 2578 2956 2516 
Q 3422 2416 3680 2098 
Q 3938 1781 3938 1306 
Q 3938 681 3513 340 
Q 3088 0 2303 0 
L 628 0 
L 628 4666 
z
" transform="scale(0.015625)"/>
        <path id="DejaVuSans-4d" d="M 628 4666 
L 1569 4666 
L 2759 1491 
L 3956 4666 
L 4897 4666 
L 4897 0 
L 4281 0 
L 4281 4097 
L 3078 897 
L 2444 897 
L 1241 4097 
L 1241 0 
L 628 0 
L 628 4666 
z
" transform="scale(0.015625)"/>
       </defs>
       <use xlink:href="#DejaVuSans-41"/>
       <use xlink:href="#DejaVuSans-42" transform="translate(68.408203 0)"/>
       <use xlink:href="#DejaVuSans-4d" transform="translate(137.011719 0)"/>
       <use xlink:href="#DejaVuSans-20" transform="translate(223.291016 0)"/>
       <use xlink:href="#DejaVuSans-441" transform="translate(255.078125 0)"/>
       <use xlink:href="#DejaVuSans-438" transform="translate(310.058594 0)"/>
       <use xlink:href="#DejaVuSans-441" transform="translate(375.048828 0)"/>
       <use xlink:href="#DejaVuSans-442" transform="translate(430.029297 0)"/>
       <use xlink:href="#DejaVuSans-435" transform="translate(488.28125 0)"/>
       <use xlink:href="#DejaVuSans-43c" transform="translate(549.804688 0)"/>
       <use xlink:href="#DejaVuSans-43d" transform="translate(625.244141 0)"/>
       <use xlink:href="#DejaVuSans-44b" transform="translate(690.625 0)"/>
       <use xlink:href="#DejaVuSans-435" transform="translate(769.580078 0)"/>
      </g>
      <!-- эффекты -->
      <g transform="translate(552.619859 331.835094) scale(0.09 -0.09)">
       <defs>
        <path id="DejaVuSans-44d" d="M 353 666 
Q 847 397 1338 397 
Q 1797 397 2125 664 
Q 2453 931 2513 1613 
L 738 1613 
L 738 2072 
L 2494 2072 
Q 2456 2400 2207 2748 
Q 1959 3097 1338 3097 
Q 856 3097 353 2828 
L 353 3366 
Q 844 3584 1363 3584 
Q 2181 3584 2651 3089 
Q 3122 2594 3122 1747 
Q 3122 903 2664 406 
Q 2206 -91 1403 -91 
Q 813 -91 353 134 
L 353 666 
z
" transform="scale(0.015625)"/>
       </defs>
       <use xlink:href="#DejaVuSans-44d"/>
       <use xlink:href="#DejaVuSans-444" transform="translate(54.882812 0)"/>
       <use xlink:href="#DejaVuSans-444" transform="translate(140.380859 0)"/>
       <use xlink:href="#DejaVuSans-435" transform="translate(225.878906 0)"/>
       <use xlink:href="#DejaVuSans-43a" transform="translate(287.402344 0)"/>
       <use xlink:href="#DejaVuSans-442" transform="translate(347.802734 0)"/>
       <use xlink:href="#DejaVuSans-44b" transform="translate(406.054688 0)"/>
      </g>
     </g>
    </g>
   </g>
   <g id="matplotlib.axis_2">
    <g id="ytick_1">
     <g id="line2d_9">
      <path d="M 95.207031 297.840437 
L 653.207031 297.840437 
" clip-path="url(#p41e9251d73)" style="fill: none; stroke: #b0b0b0; stroke-opacity: 0.22; stroke-width: 0.7; stroke-linecap: square"/>
     </g>
     <g id="line2d_10">
      <defs>
       <path id="m7438afbd4a" d="M 0 0 
L -3.5 0 
" style="stroke: #000000; stroke-width: 0.8"/>
      </defs>
      <g>
       <use xlink:href="#m7438afbd4a" x="95.207031" y="297.840437" style="stroke: #000000; stroke-width: 0.8"/>
      </g>
     </g>
     <g id="text_5">
      <!-- нет данных -->
      <g transform="translate(32.744531 301.259734) scale(0.09 -0.09)">
       <defs>
        <path id="DejaVuSans-445" d="M 3513 3500 
L 2247 1797 
L 3578 0 
L 2900 0 
L 1881 1375 
L 863 0 
L 184 0 
L 1544 1831 
L 300 3500 
L 978 3500 
L 1906 2253 
L 2834 3500 
L 3513 3500 
z
" transform="scale(0.015625)"/>
       </defs>
       <use xlink:href="#DejaVuSans-43d"/>
       <use xlink:href="#DejaVuSans-435" transform="translate(65.380859 0)"/>
       <use xlink:href="#DejaVuSans-442" transform="translate(126.904297 0)"/>
       <use xlink:href="#DejaVuSans-20" transform="translate(185.15625 0)"/>
       <use xlink:href="#DejaVuSans-434" transform="translate(216.943359 0)"/>
       <use xlink:href="#DejaVuSans-430" transform="translate(286.083984 0)"/>
       <use xlink:href="#DejaVuSans-43d" transform="translate(347.363281 0)"/>
       <use xlink:href="#DejaVuSans-43d" transform="translate(412.744141 0)"/>
       <use xlink:href="#DejaVuSans-44b" transform="translate(478.125 0)"/>
       <use xlink:href="#DejaVuSans-445" transform="translate(557.080078 0)"/>
      </g>
     </g>
    </g>
    <g id="ytick_2">
     <g id="line2d_11">
      <path d="M 95.207031 182.139568 
L 653.207031 182.139568 
" clip-path="url(#p41e9251d73)" style="fill: none; stroke: #b0b0b0; stroke-opacity: 0.22; stroke-width: 0.7; stroke-linecap: square"/>
     </g>
     <g id="line2d_12">
      <g>
       <use xlink:href="#m7438afbd4a" x="95.207031" y="182.139568" style="stroke: #000000; stroke-width: 0.8"/>
      </g>
     </g>
     <g id="text_6">
      <!-- частично -->
      <g transform="translate(44.627344 185.558865) scale(0.09 -0.09)">
       <defs>
        <path id="DejaVuSans-447" d="M 2625 0 
L 2625 1472 
L 1553 1472 
Q 1075 1472 756 1769 
Q 469 2038 469 2613 
L 469 3500 
L 1044 3500 
L 1044 2666 
Q 1044 2300 1206 2116 
Q 1372 1931 1697 1931 
L 2625 1931 
L 2625 3500 
L 3200 3500 
L 3200 0 
L 2625 0 
z
" transform="scale(0.015625)"/>
       </defs>
       <use xlink:href="#DejaVuSans-447"/>
       <use xlink:href="#DejaVuSans-430" transform="translate(59.082031 0)"/>
       <use xlink:href="#DejaVuSans-441" transform="translate(120.361328 0)"/>
       <use xlink:href="#DejaVuSans-442" transform="translate(175.341797 0)"/>
       <use xlink:href="#DejaVuSans-438" transform="translate(233.59375 0)"/>
       <use xlink:href="#DejaVuSans-447" transform="translate(298.583984 0)"/>
       <use xlink:href="#DejaVuSans-43d" transform="translate(357.666016 0)"/>
       <use xlink:href="#DejaVuSans-43e" transform="translate(423.046875 0)"/>
      </g>
     </g>
    </g>
    <g id="ytick_3">
     <g id="line2d_13">
      <path d="M 95.207031 66.438698 
L 653.207031 66.438698 
" clip-path="url(#p41e9251d73)" style="fill: none; stroke: #b0b0b0; stroke-opacity: 0.22; stroke-width: 0.7; stroke-linecap: square"/>
     </g>
     <g id="line2d_14">
      <g>
       <use xlink:href="#m7438afbd4a" x="95.207031" y="66.438698" style="stroke: #000000; stroke-width: 0.8"/>
      </g>
     </g>
     <g id="text_7">
      <!-- поддерживается -->
      <g transform="translate(7.2 69.857995) scale(0.09 -0.09)">
       <defs>
        <path id="DejaVuSans-43f" d="M 3603 3500 
L 3603 0 
L 3025 0 
L 3025 3041 
L 1159 3041 
L 1159 0 
L 581 0 
L 581 3500 
L 3603 3500 
z
" transform="scale(0.015625)"/>
       </defs>
       <use xlink:href="#DejaVuSans-43f"/>
       <use xlink:href="#DejaVuSans-43e" transform="translate(65.380859 0)"/>
       <use xlink:href="#DejaVuSans-434" transform="translate(126.5625 0)"/>
       <use xlink:href="#DejaVuSans-434" transform="translate(195.703125 0)"/>
       <use xlink:href="#DejaVuSans-435" transform="translate(264.84375 0)"/>
       <use xlink:href="#DejaVuSans-440" transform="translate(326.367188 0)"/>
       <use xlink:href="#DejaVuSans-436" transform="translate(389.84375 0)"/>
       <use xlink:href="#DejaVuSans-438" transform="translate(479.931641 0)"/>
       <use xlink:href="#DejaVuSans-432" transform="translate(544.921875 0)"/>
       <use xlink:href="#DejaVuSans-430" transform="translate(603.857422 0)"/>
       <use xlink:href="#DejaVuSans-435" transform="translate(665.136719 0)"/>
       <use xlink:href="#DejaVuSans-442" transform="translate(726.660156 0)"/>
       <use xlink:href="#DejaVuSans-441" transform="translate(784.912109 0)"/>
       <use xlink:href="#DejaVuSans-44f" transform="translate(839.892578 0)"/>
      </g>
     </g>
    </g>
   </g>
   <g id="patch_7">
    <path d="M 95.207031 297.840437 
L 95.207031 31.728437 
" style="fill: none; stroke: #000000; stroke-width: 0.8; stroke-linejoin: miter; stroke-linecap: square"/>
   </g>
   <g id="patch_8">
    <path d="M 95.207031 297.840437 
L 653.207031 297.840437 
" style="fill: none; stroke: #000000; stroke-width: 0.8; stroke-linejoin: miter; stroke-linecap: square"/>
   </g>
   <g id="text_8">
    <!-- поддерживается -->
    <g transform="translate(133.464281 55.31091) scale(0.09 -0.09)">
     <use xlink:href="#DejaVuSans-43f"/>
     <use xlink:href="#DejaVuSans-43e" transform="translate(65.380859 0)"/>
     <use xlink:href="#DejaVuSans-434" transform="translate(126.5625 0)"/>
     <use xlink:href="#DejaVuSans-434" transform="translate(195.703125 0)"/>
     <use xlink:href="#DejaVuSans-435" transform="translate(264.84375 0)"/>
     <use xlink:href="#DejaVuSans-440" transform="translate(326.367188 0)"/>
     <use xlink:href="#DejaVuSans-436" transform="translate(389.84375 0)"/>
     <use xlink:href="#DejaVuSans-438" transform="translate(479.931641 0)"/>
     <use xlink:href="#DejaVuSans-432" transform="translate(544.921875 0)"/>
     <use xlink:href="#DejaVuSans-430" transform="translate(603.857422 0)"/>
     <use xlink:href="#DejaVuSans-435" transform="translate(665.136719 0)"/>
     <use xlink:href="#DejaVuSans-442" transform="translate(726.660156 0)"/>
     <use xlink:href="#DejaVuSans-441" transform="translate(784.912109 0)"/>
     <use xlink:href="#DejaVuSans-44f" transform="translate(839.892578 0)"/>
    </g>
   </g>
   <g id="text_9">
    <!-- поддерживается -->
    <g transform="translate(266.957104 55.31091) scale(0.09 -0.09)">
     <use xlink:href="#DejaVuSans-43f"/>
     <use xlink:href="#DejaVuSans-43e" transform="translate(65.380859 0)"/>
     <use xlink:href="#DejaVuSans-434" transform="translate(126.5625 0)"/>
     <use xlink:href="#DejaVuSans-434" transform="translate(195.703125 0)"/>
     <use xlink:href="#DejaVuSans-435" transform="translate(264.84375 0)"/>
     <use xlink:href="#DejaVuSans-440" transform="translate(326.367188 0)"/>
     <use xlink:href="#DejaVuSans-436" transform="translate(389.84375 0)"/>
     <use xlink:href="#DejaVuSans-438" transform="translate(479.931641 0)"/>
     <use xlink:href="#DejaVuSans-432" transform="translate(544.921875 0)"/>
     <use xlink:href="#DejaVuSans-430" transform="translate(603.857422 0)"/>
     <use xlink:href="#DejaVuSans-435" transform="translate(665.136719 0)"/>
     <use xlink:href="#DejaVuSans-442" transform="translate(726.660156 0)"/>
     <use xlink:href="#DejaVuSans-441" transform="translate(784.912109 0)"/>
     <use xlink:href="#DejaVuSans-44f" transform="translate(839.892578 0)"/>
    </g>
   </g>
   <g id="text_10">
    <!-- поддерживается -->
    <g transform="translate(400.449927 55.31091) scale(0.09 -0.09)">
     <use xlink:href="#DejaVuSans-43f"/>
     <use xlink:href="#DejaVuSans-43e" transform="translate(65.380859 0)"/>
     <use xlink:href="#DejaVuSans-434" transform="translate(126.5625 0)"/>
     <use xlink:href="#DejaVuSans-434" transform="translate(195.703125 0)"/>
     <use xlink:href="#DejaVuSans-435" transform="translate(264.84375 0)"/>
     <use xlink:href="#DejaVuSans-440" transform="translate(326.367188 0)"/>
     <use xlink:href="#DejaVuSans-436" transform="translate(389.84375 0)"/>
     <use xlink:href="#DejaVuSans-438" transform="translate(479.931641 0)"/>
     <use xlink:href="#DejaVuSans-432" transform="translate(544.921875 0)"/>
     <use xlink:href="#DejaVuSans-430" transform="translate(603.857422 0)"/>
     <use xlink:href="#DejaVuSans-435" transform="translate(665.136719 0)"/>
     <use xlink:href="#DejaVuSans-442" transform="translate(726.660156 0)"/>
     <use xlink:href="#DejaVuSans-441" transform="translate(784.912109 0)"/>
     <use xlink:href="#DejaVuSans-44f" transform="translate(839.892578 0)"/>
    </g>
   </g>
   <g id="text_11">
    <!-- поддерживается -->
    <g transform="translate(533.94275 55.31091) scale(0.09 -0.09)">
     <use xlink:href="#DejaVuSans-43f"/>
     <use xlink:href="#DejaVuSans-43e" transform="translate(65.380859 0)"/>
     <use xlink:href="#DejaVuSans-434" transform="translate(126.5625 0)"/>
     <use xlink:href="#DejaVuSans-434" transform="translate(195.703125 0)"/>
     <use xlink:href="#DejaVuSans-435" transform="translate(264.84375 0)"/>
     <use xlink:href="#DejaVuSans-440" transform="translate(326.367188 0)"/>
     <use xlink:href="#DejaVuSans-436" transform="translate(389.84375 0)"/>
     <use xlink:href="#DejaVuSans-438" transform="translate(479.931641 0)"/>
     <use xlink:href="#DejaVuSans-432" transform="translate(544.921875 0)"/>
     <use xlink:href="#DejaVuSans-430" transform="translate(603.857422 0)"/>
     <use xlink:href="#DejaVuSans-435" transform="translate(665.136719 0)"/>
     <use xlink:href="#DejaVuSans-442" transform="translate(726.660156 0)"/>
     <use xlink:href="#DejaVuSans-441" transform="translate(784.912109 0)"/>
     <use xlink:href="#DejaVuSans-44f" transform="translate(839.892578 0)"/>
    </g>
   </g>
   <g id="text_12">
    <!-- Сводная визуальная проверка гипотез по доступным CSV -->
    <g transform="translate(139.474062 17.728437) scale(0.14 -0.14)">
     <defs>
      <path id="DejaVuSans-Bold-421" d="M 4288 256 
Q 3956 84 3597 -3 
Q 3238 -91 2847 -91 
Q 1681 -91 1000 561 
Q 319 1213 319 2328 
Q 319 3447 1000 4098 
Q 1681 4750 2847 4750 
Q 3238 4750 3597 4662 
Q 3956 4575 4288 4403 
L 4288 3438 
Q 3953 3666 3628 3772 
Q 3303 3878 2944 3878 
Q 2300 3878 1931 3465 
Q 1563 3053 1563 2328 
Q 1563 1606 1931 1193 
Q 2300 781 2944 781 
Q 3303 781 3628 887 
Q 3953 994 4288 1222 
L 4288 256 
z
" transform="scale(0.015625)"/>
      <path id="DejaVuSans-Bold-432" d="M 2184 2181 
Q 2378 2181 2478 2261 
Q 2578 2341 2578 2497 
Q 2578 2653 2478 2731 
Q 2378 2809 2184 2809 
L 1656 2809 
L 1656 2181 
L 2184 2181 
z
M 2222 700 
Q 2469 700 2594 798 
Q 2719 897 2719 1094 
Q 2719 1288 2594 1384 
Q 2469 1481 2222 1481 
L 1656 1481 
L 1656 700 
L 2222 700 
z
M 538 3500 
L 2141 3500 
Q 2919 3500 3267 3279 
Q 3616 3059 3616 2575 
Q 3616 2319 3487 2139 
Q 3359 1959 3119 1872 
Q 3428 1788 3598 1561 
Q 3769 1334 3769 1003 
Q 3769 497 3403 248 
Q 3038 0 2294 0 
L 538 0 
L 538 3500 
z
" transform="scale(0.015625)"/>
      <path id="DejaVuSans-Bold-43e" d="M 2203 2784 
Q 1831 2784 1636 2517 
Q 1441 2250 1441 1747 
Q 1441 1244 1636 976 
Q 1831 709 2203 709 
Q 2569 709 2762 976 
Q 2956 1244 2956 1747 
Q 2956 2250 2762 2517 
Q 2569 2784 2203 2784 
z
M 2203 3584 
Q 3106 3584 3614 3096 
Q 4122 2609 4122 1747 
Q 4122 884 3614 396 
Q 3106 -91 2203 -91 
Q 1297 -91 786 396 
Q 275 884 275 1747 
Q 275 2609 786 3096 
Q 1297 3584 2203 3584 
z
" transform="scale(0.015625)"/>
      <path id="DejaVuSans-Bold-434" d="M 547 800 
Q 903 919 1053 1314 
Q 1203 1709 1203 2838 
L 1203 3500 
L 4228 3500 
L 4228 800 
L 4809 800 
L 4809 -884 
L 4009 -884 
L 4009 0 
L 1159 0 
L 1159 -884 
L 359 -884 
L 359 800 
L 547 800 
z
M 3109 2700 
L 2322 2700 
L 2322 2603 
Q 2322 1456 2063 800 
L 3109 800 
L 3109 2700 
z
" transform="scale(0.015625)"/>
      <path id="DejaVuSans-Bold-43d" d="M 538 3500 
L 1656 3500 
L 1656 2169 
L 2766 2169 
L 2766 3500 
L 3884 3500 
L 3884 0 
L 2766 0 
L 2766 1478 
L 1656 1478 
L 1656 0 
L 538 0 
L 538 3500 
z
" transform="scale(0.015625)"/>
      <path id="DejaVuSans-Bold-430" d="M 2106 1575 
Q 1756 1575 1579 1456 
Q 1403 1338 1403 1106 
Q 1403 894 1545 773 
Q 1688 653 1941 653 
Q 2256 653 2472 879 
Q 2688 1106 2688 1447 
L 2688 1575 
L 2106 1575 
z
M 3816 1997 
L 3816 0 
L 2688 0 
L 2688 519 
Q 2463 200 2181 54 
Q 1900 -91 1497 -91 
Q 953 -91 614 226 
Q 275 544 275 1050 
Q 275 1666 698 1953 
Q 1122 2241 2028 2241 
L 2688 2241 
L 2688 2328 
Q 2688 2594 2478 2717 
Q 2269 2841 1825 2841 
Q 1466 2841 1156 2769 
Q 847 2697 581 2553 
L 581 3406 
Q 941 3494 1303 3539 
Q 1666 3584 2028 3584 
Q 2975 3584 3395 3211 
Q 3816 2838 3816 1997 
z
" transform="scale(0.015625)"/>
      <path id="DejaVuSans-Bold-44f" d="M 1528 2394 
Q 1528 2169 1651 2069 
Q 1775 1969 2059 1969 
L 2463 1969 
L 2463 2816 
L 2059 2816 
Q 1775 2816 1651 2719 
Q 1528 2622 1528 2394 
z
M 197 0 
L 1113 1497 
Q 847 1650 650 1917 
Q 453 2184 453 2516 
Q 453 3013 789 3256 
Q 1125 3500 1878 3500 
L 3581 3500 
L 3581 0 
L 2463 0 
L 2463 1278 
L 2069 1278 
L 1288 0 
L 197 0 
z
" transform="scale(0.015625)"/>
      <path id="DejaVuSans-Bold-20" transform="scale(0.015625)"/>
      <path id="DejaVuSans-Bold-438" d="M 3947 3500 
L 3947 0 
L 2828 0 
L 2828 1863 
L 1700 0 
L 538 0 
L 538 3500 
L 1656 3500 
L 1656 1638 
L 2784 3500 
L 3947 3500 
z
" transform="scale(0.015625)"/>
      <path id="DejaVuSans-Bold-437" d="M 900 2181 
L 1413 2181 
Q 1872 2181 2039 2281 
Q 2206 2381 2206 2519 
Q 2206 2841 1469 2841 
Q 853 2841 472 2625 
L 472 3434 
Q 1041 3584 1713 3584 
Q 2500 3584 2862 3361 
Q 3225 3138 3225 2666 
Q 3225 2047 2541 1888 
Q 3313 1697 3313 994 
Q 3313 453 2888 181 
Q 2463 -91 1553 -91 
Q 875 -91 313 84 
L 313 947 
Q 1013 653 1428 653 
Q 1884 653 2089 776 
Q 2294 900 2294 1056 
Q 2294 1491 1394 1491 
L 900 1491 
L 900 2181 
z
" transform="scale(0.015625)"/>
      <path id="DejaVuSans-Bold-443" d="M 78 3500 
L 1197 3500 
L 2138 1125 
L 2938 3500 
L 4056 3500 
L 2584 -331 
Q 2363 -916 2067 -1148 
Q 1772 -1381 1288 -1381 
L 641 -1381 
L 641 -647 
L 991 -647 
Q 1275 -647 1404 -556 
Q 1534 -466 1606 -231 
L 1638 -134 
L 78 3500 
z
" transform="scale(0.015625)"/>
      <path id="DejaVuSans-Bold-43b" d="M 353 0 
L 353 800 
Q 906 913 1031 1278 
Q 1125 1556 1125 2928 
L 1125 3500 
L 4150 3500 
L 4150 0 
L 3031 0 
L 3031 2700 
L 2244 2700 
L 2244 2584 
Q 2244 1213 2028 813 
Q 1591 0 353 0 
z
" transform="scale(0.015625)"/>
      <path id="DejaVuSans-Bold-44c" d="M 2719 1094 
Q 2719 1291 2594 1388 
Q 2472 1481 2222 1481 
L 1656 1481 
L 1656 700 
L 2222 700 
Q 2469 700 2594 800 
Q 2719 897 2719 1094 
z
M 538 3500 
L 1656 3500 
L 1656 2172 
L 2291 2172 
Q 3000 2172 3381 1913 
Q 3766 1650 3766 1081 
Q 3766 513 3381 256 
Q 3000 0 2291 0 
L 538 0 
L 538 3500 
z
" transform="scale(0.015625)"/>
      <path id="DejaVuSans-Bold-43f" d="M 3884 3500 
L 3884 0 
L 2766 0 
L 2766 2700 
L 1656 2700 
L 1656 0 
L 538 0 
L 538 3500 
L 3884 3500 
z
" transform="scale(0.015625)"/>
      <path id="DejaVuSans-Bold-440" d="M 1656 506 
L 1656 -1331 
L 538 -1331 
L 538 3500 
L 1656 3500 
L 1656 2988 
Q 1888 3294 2169 3439 
Q 2450 3584 2816 3584 
Q 3463 3584 3878 3070 
Q 4294 2556 4294 1747 
Q 4294 938 3878 423 
Q 3463 -91 2816 -91 
Q 2450 -91 2169 54 
Q 1888 200 1656 506 
z
M 2400 2772 
Q 2041 2772 1848 2508 
Q 1656 2244 1656 1747 
Q 1656 1250 1848 986 
Q 2041 722 2400 722 
Q 2759 722 2948 984 
Q 3138 1247 3138 1747 
Q 3138 2247 2948 2509 
Q 2759 2772 2400 2772 
z
" transform="scale(0.015625)"/>
      <path id="DejaVuSans-Bold-435" d="M 4031 1759 
L 4031 1441 
L 1416 1441 
Q 1456 1047 1700 850 
Q 1944 653 2381 653 
Q 2734 653 3104 758 
Q 3475 863 3866 1075 
L 3866 213 
Q 3469 63 3072 -14 
Q 2675 -91 2278 -91 
Q 1328 -91 801 392 
Q 275 875 275 1747 
Q 275 2603 792 3093 
Q 1309 3584 2216 3584 
Q 3041 3584 3536 3087 
Q 4031 2591 4031 1759 
z
M 2881 2131 
Q 2881 2450 2695 2645 
Q 2509 2841 2209 2841 
Q 1884 2841 1681 2658 
Q 1478 2475 1428 2131 
L 2881 2131 
z
" transform="scale(0.015625)"/>
      <path id="DejaVuSans-Bold-43a" d="M 538 3500 
L 1656 3500 
L 1656 2316 
L 2903 3500 
L 4128 3500 
L 2634 2078 
L 4250 0 
L 3094 0 
L 1972 1447 
L 1656 1147 
L 1656 0 
L 538 0 
L 538 3500 
z
" transform="scale(0.015625)"/>
      <path id="DejaVuSans-Bold-433" d="M 538 0 
L 538 3500 
L 3191 3500 
L 3191 2809 
L 1656 2809 
L 1656 0 
L 538 0 
z
" transform="scale(0.015625)"/>
      <path id="DejaVuSans-Bold-442" d="M 25 3500 
L 3681 3500 
L 3681 2809 
L 2413 2809 
L 2413 0 
L 1297 0 
L 1297 2809 
L 25 2809 
L 25 3500 
z
" transform="scale(0.015625)"/>
      <path id="DejaVuSans-Bold-441" d="M 3366 3391 
L 3366 2478 
Q 3138 2634 2908 2709 
Q 2678 2784 2431 2784 
Q 1963 2784 1702 2511 
Q 1441 2238 1441 1747 
Q 1441 1256 1702 982 
Q 1963 709 2431 709 
Q 2694 709 2930 787 
Q 3166 866 3366 1019 
L 3366 103 
Q 3103 6 2833 -42 
Q 2563 -91 2291 -91 
Q 1344 -91 809 395 
Q 275 881 275 1747 
Q 275 2613 809 3098 
Q 1344 3584 2291 3584 
Q 2566 3584 2833 3536 
Q 3100 3488 3366 3391 
z
" transform="scale(0.015625)"/>
      <path id="DejaVuSans-Bold-44b" d="M 4154 3500 
L 5272 3500 
L 5272 0 
L 4154 0 
L 4154 3500 
z
M 2719 1094 
Q 2719 1291 2594 1388 
Q 2472 1481 2222 1481 
L 1656 1481 
L 1656 700 
L 2222 700 
Q 2469 700 2594 800 
Q 2719 897 2719 1094 
z
M 538 3500 
L 1656 3500 
L 1656 2172 
L 2291 2172 
Q 3000 2172 3381 1913 
Q 3766 1650 3766 1081 
Q 3766 513 3381 256 
Q 3000 0 2291 0 
L 538 0 
L 538 3500 
z
" transform="scale(0.015625)"/>
      <path id="DejaVuSans-Bold-43c" d="M 538 3500 
L 1825 3500 
L 2613 1750 
L 3400 3500 
L 4691 3500 
L 4691 0 
L 3575 0 
L 3575 1984 
L 2984 672 
L 2250 672 
L 1656 1984 
L 1656 0 
L 538 0 
L 538 3500 
z
" transform="scale(0.015625)"/>
      <path id="DejaVuSans-Bold-43" d="M 4288 256 
Q 3956 84 3597 -3 
Q 3238 -91 2847 -91 
Q 1681 -91 1000 561 
Q 319 1213 319 2328 
Q 319 3447 1000 4098 
Q 1681 4750 2847 4750 
Q 3238 4750 3597 4662 
Q 3956 4575 4288 4403 
L 4288 3438 
Q 3953 3666 3628 3772 
Q 3303 3878 2944 3878 
Q 2300 3878 1931 3465 
Q 1563 3053 1563 2328 
Q 1563 1606 1931 1193 
Q 2300 781 2944 781 
Q 3303 781 3628 887 
Q 3953 994 4288 1222 
L 4288 256 
z
" transform="scale(0.015625)"/>
      <path id="DejaVuSans-Bold-53" d="M 3834 4519 
L 3834 3531 
Q 3450 3703 3084 3790 
Q 2719 3878 2394 3878 
Q 1963 3878 1756 3759 
Q 1550 3641 1550 3391 
Q 1550 3203 1689 3098 
Q 1828 2994 2194 2919 
L 2706 2816 
Q 3484 2659 3812 2340 
Q 4141 2022 4141 1434 
Q 4141 663 3683 286 
Q 3225 -91 2284 -91 
Q 1841 -91 1394 -6 
Q 947 78 500 244 
L 500 1259 
Q 947 1022 1364 901 
Q 1781 781 2169 781 
Q 2563 781 2772 912 
Q 2981 1044 2981 1288 
Q 2981 1506 2839 1625 
Q 2697 1744 2272 1838 
L 1806 1941 
Q 1106 2091 782 2419 
Q 459 2747 459 3303 
Q 459 4000 909 4375 
Q 1359 4750 2203 4750 
Q 2588 4750 2994 4692 
Q 3400 4634 3834 4519 
z
" transform="scale(0.015625)"/>
      <path id="DejaVuSans-Bold-56" d="M 31 4666 
L 1241 4666 
L 2478 1222 
L 3713 4666 
L 4922 4666 
L 3194 0 
L 1759 0 
L 31 4666 
z
" transform="scale(0.015625)"/>
     </defs>
     <use xlink:href="#DejaVuSans-Bold-421"/>
     <use xlink:href="#DejaVuSans-Bold-432" transform="translate(73.388672 0)"/>
     <use xlink:href="#DejaVuSans-Bold-43e" transform="translate(136.669922 0)"/>
     <use xlink:href="#DejaVuSans-Bold-434" transform="translate(205.371094 0)"/>
     <use xlink:href="#DejaVuSans-Bold-43d" transform="translate(286.132812 0)"/>
     <use xlink:href="#DejaVuSans-Bold-430" transform="translate(355.224609 0)"/>
     <use xlink:href="#DejaVuSans-Bold-44f" transform="translate(422.705078 0)"/>
     <use xlink:href="#DejaVuSans-Bold-20" transform="translate(486.914062 0)"/>
     <use xlink:href="#DejaVuSans-Bold-432" transform="translate(521.728516 0)"/>
     <use xlink:href="#DejaVuSans-Bold-438" transform="translate(585.009766 0)"/>
     <use xlink:href="#DejaVuSans-Bold-437" transform="translate(655.078125 0)"/>
     <use xlink:href="#DejaVuSans-Bold-443" transform="translate(713.183594 0)"/>
     <use xlink:href="#DejaVuSans-Bold-430" transform="translate(778.369141 0)"/>
     <use xlink:href="#DejaVuSans-Bold-43b" transform="translate(845.849609 0)"/>
     <use xlink:href="#DejaVuSans-Bold-44c" transform="translate(919.091797 0)"/>
     <use xlink:href="#DejaVuSans-Bold-43d" transform="translate(982.324219 0)"/>
     <use xlink:href="#DejaVuSans-Bold-430" transform="translate(1051.416016 0)"/>
     <use xlink:href="#DejaVuSans-Bold-44f" transform="translate(1118.896484 0)"/>
     <use xlink:href="#DejaVuSans-Bold-20" transform="translate(1183.105469 0)"/>
     <use xlink:href="#DejaVuSans-Bold-43f" transform="translate(1217.919922 0)"/>
     <use xlink:href="#DejaVuSans-Bold-440" transform="translate(1287.011719 0)"/>
     <use xlink:href="#DejaVuSans-Bold-43e" transform="translate(1358.59375 0)"/>
     <use xlink:href="#DejaVuSans-Bold-432" transform="translate(1427.294922 0)"/>
     <use xlink:href="#DejaVuSans-Bold-435" transform="translate(1490.576172 0)"/>
     <use xlink:href="#DejaVuSans-Bold-440" transform="translate(1558.398438 0)"/>
     <use xlink:href="#DejaVuSans-Bold-43a" transform="translate(1629.980469 0)"/>
     <use xlink:href="#DejaVuSans-Bold-430" transform="translate(1697.851562 0)"/>
     <use xlink:href="#DejaVuSans-Bold-20" transform="translate(1765.332031 0)"/>
     <use xlink:href="#DejaVuSans-Bold-433" transform="translate(1800.146484 0)"/>
     <use xlink:href="#DejaVuSans-Bold-438" transform="translate(1852.392578 0)"/>
     <use xlink:href="#DejaVuSans-Bold-43f" transform="translate(1922.460938 0)"/>
     <use xlink:href="#DejaVuSans-Bold-43e" transform="translate(1991.552734 0)"/>
     <use xlink:href="#DejaVuSans-Bold-442" transform="translate(2060.253906 0)"/>
     <use xlink:href="#DejaVuSans-Bold-435" transform="translate(2118.212891 0)"/>
     <use xlink:href="#DejaVuSans-Bold-437" transform="translate(2186.035156 0)"/>
     <use xlink:href="#DejaVuSans-Bold-20" transform="translate(2244.140625 0)"/>
     <use xlink:href="#DejaVuSans-Bold-43f" transform="translate(2278.955078 0)"/>
     <use xlink:href="#DejaVuSans-Bold-43e" transform="translate(2348.046875 0)"/>
     <use xlink:href="#DejaVuSans-Bold-20" transform="translate(2416.748047 0)"/>
     <use xlink:href="#DejaVuSans-Bold-434" transform="translate(2451.5625 0)"/>
     <use xlink:href="#DejaVuSans-Bold-43e" transform="translate(2532.324219 0)"/>
     <use xlink:href="#DejaVuSans-Bold-441" transform="translate(2601.025391 0)"/>
     <use xlink:href="#DejaVuSans-Bold-442" transform="translate(2660.302734 0)"/>
     <use xlink:href="#DejaVuSans-Bold-443" transform="translate(2718.261719 0)"/>
     <use xlink:href="#DejaVuSans-Bold-43f" transform="translate(2783.447266 0)"/>
     <use xlink:href="#DejaVuSans-Bold-43d" transform="translate(2852.539062 0)"/>
     <use xlink:href="#DejaVuSans-Bold-44b" transform="translate(2921.630859 0)"/>
     <use xlink:href="#DejaVuSans-Bold-43c" transform="translate(3012.060547 0)"/>
     <use xlink:href="#DejaVuSans-Bold-20" transform="translate(3093.798828 0)"/>
     <use xlink:href="#DejaVuSans-Bold-43" transform="translate(3128.613281 0)"/>
     <use xlink:href="#DejaVuSans-Bold-53" transform="translate(3203.876953 0)"/>
     <use xlink:href="#DejaVuSans-Bold-56" transform="translate(3275.898438 0)"/>
    </g>
   </g>
  </g>
 </g>
 <defs>
  <clipPath id="p41e9251d73">
   <rect x="95.207031" y="31.728437" width="558" height="266.112"/>
  </clipPath>
 </defs>
</svg>
